<svg xmlns="http://www.w3.org/2000/svg" xmlns:xlink="http://www.w3.org/1999/xlink" version="1.1" x="0px" y="0px" viewBox="0 0 566.93 566.93" enable-background="new 0 0 566.93 566.93" xml:space="preserve"><g><path d="M464.876,107.901c-0.111-0.584-0.448-1.079-0.98-1.373l-7.378-4.305c2.387-3.007,4.688-5.935,6.752-8.592   c-5.07-20.952-28.642-23.632-28.642-23.632l-7.266,9.993l-5.725-5.576c-0.421-0.434-1-0.621-1.588-0.569   c-0.584,0.037-1.13,0.332-1.485,0.803l-4.3,5.664c-0.364,0.471-0.509,1.074-0.374,1.648c0.084,0.495,0.355,0.934,0.757,1.228   c0.069,0.047,0.14,0.103,0.21,0.145l7.088,4.123l-5.052,6.953l-6.015-5.846c-0.411-0.425-0.99-0.616-1.578-0.565   c-0.593,0.038-1.13,0.327-1.485,0.789l-4.314,5.678c-0.354,0.472-0.49,1.064-0.364,1.653c0.084,0.486,0.369,0.925,0.767,1.219   c0.061,0.051,0.13,0.093,0.214,0.145l7.401,4.319l-5.239,7.2l-6.275-6.108c-0.43-0.439-1.009-0.621-1.583-0.579   c-0.593,0.042-1.135,0.336-1.484,0.803l-4.319,5.673c-0.351,0.472-0.49,1.069-0.364,1.644c0.089,0.495,0.364,0.934,0.766,1.232   c0.061,0.047,0.131,0.093,0.21,0.14l8.223,4.795c0.131,0.075,0.267,0.103,0.401,0.145l-5.318,15.656l16.539,12.561l15.045-8.732   c0.08,0.383,0.243,0.752,0.542,1.042l6.831,6.645c0.062,0.065,0.131,0.117,0.191,0.163c0.397,0.304,0.883,0.444,1.392,0.406   c0.584-0.033,1.126-0.327,1.485-0.793l4.305-5.683c0.36-0.462,0.495-1.064,0.379-1.634c-0.122-0.583-0.453-1.079-0.977-1.373   l-8.236-4.795c-0.028-0.014-0.061-0.014-0.084-0.028c1.597-1.957,3.553-4.347,5.762-7.069l6.668,6.481   c0.061,0.061,0.121,0.112,0.187,0.164c0.393,0.294,0.888,0.453,1.392,0.406c0.593-0.037,1.121-0.327,1.485-0.794l4.31-5.683   c0.354-0.462,0.495-1.055,0.374-1.634c-0.117-0.579-0.444-1.079-0.981-1.368l-7.783-4.543c1.793-2.218,3.637-4.501,5.486-6.804   l6.275,6.107c0.07,0.065,0.126,0.122,0.196,0.168c0.388,0.294,0.888,0.439,1.387,0.406c0.593-0.038,1.13-0.336,1.485-0.803   l4.319-5.673C464.853,109.078,465.002,108.471,464.876,107.901z M412.42,119.369c-1.205,1.578-3.479,1.896-5.066,0.686   c-1.592-1.209-1.91-3.483-0.695-5.071c1.219-1.597,3.483-1.9,5.075-0.696C413.326,115.498,413.639,117.767,412.42,119.369z    M423.3,105.034c-1.21,1.597-3.475,1.91-5.066,0.701c-1.593-1.209-1.9-3.474-0.687-5.066c1.214-1.602,3.483-1.915,5.071-0.71   C424.21,101.177,424.519,103.441,423.3,105.034z M428.296,86.515c1.214-1.602,3.479-1.9,5.071-0.696   c1.588,1.205,1.905,3.47,0.69,5.076c-1.204,1.592-3.479,1.891-5.07,0.677C427.399,90.367,427.087,88.103,428.296,86.515z    M427.819,131.061c-1.204,1.592-3.479,1.905-5.075,0.691c-1.583-1.209-1.905-3.479-0.687-5.071   c1.209-1.606,3.479-1.905,5.075-0.696C428.721,127.19,429.038,129.469,427.819,131.061z M438.709,116.74   c-1.219,1.587-3.483,1.9-5.071,0.686c-1.597-1.205-1.91-3.483-0.7-5.071c1.205-1.592,3.492-1.905,5.071-0.696   C439.605,112.869,439.923,115.138,438.709,116.74z M449.448,102.596c-1.204,1.583-3.465,1.891-5.062,0.677   c-1.588-1.209-1.91-3.474-0.7-5.066c1.209-1.602,3.492-1.905,5.075-0.696C450.354,98.73,450.672,101,449.448,102.596z"></path><path fill-rule="evenodd" clip-rule="evenodd" stroke="#000000" stroke-width="0.25" stroke-linecap="round" stroke-linejoin="round" d="   M297.822,301.099l111.833-152.49l-15.787-12.005L291.43,266.759c-0.952-0.817-1.857-1.602-2.666-2.32   c-25.999-21.134-47.395-25-64.316-7.779c-10.955,11.169-10.6,21.26-15.446,29.371c-26.112,43.631-62.268,34.974-90.405,64.882   c-21.008,22.329-19.43,53.908-9.722,71.391c25.485,45.887,106.809,103.105,149.09,58.48c27.825-29.376,24.076-57.705,32.163-85.166   c2.672-9.04,10.133-22.824,18.197-30.697c4.707-4.608,17.543-6.079,21.923-17.599C336.999,329.596,293.489,320.201,297.822,301.099   z M226.563,325.271c8.063-10.623,23.216-12.691,33.839-4.617c10.614,8.064,12.683,23.217,4.609,33.839   c-8.069,10.614-23.212,12.683-33.835,4.614C220.558,351.038,218.498,335.891,226.563,325.271z M229.85,429.125l-58.055-44.117   l7.162-9.437l58.064,44.112L229.85,429.125z M258.277,416.078c-6.313,2.046-9.475,2.69-20.513-5.473   c-8.434-7.298-12.323-13.518-3.577-27.391c6.164-8.102,11.743-11.444,18.696-10.613c7.103,0.032,26.41-8.05,28.213-31.943   c-0.29-5.869,4.562-6.49,7.196,8.143C288.293,348.801,294.615,395.164,258.277,416.078z"></path></g></svg>